# xmcd CD database file
#
# Track frame offsets:
#	150
#	13314
#	35354
#	49484
#	67309
#	88311
#	95687
#	109480
#	125504
#	138546
#	150821
#	166500
#	184039
#	213917
#	230033
#	247165
#
# Disc length: 3685 seconds
#
# Revision: 0
# Processed by: cddbd v1.4PL0 Copyright (c) Steve Scherf et al.
# Submitted via: CDex 1.40Beta9
#
DISCID=eb0e6310
DTITLE=Pass Over Blues - She¥ real
DYEAR=1900
DGENRE=Blues
TTITLE0=She¥s real
TTITLE1=Blues everywhere
TTITLE2=Das geht keinem etwas an
TTITLE3=Ratten
TTITLE4=Too much month later
TTITLE5=Shorty¥s boogie
TTITLE6=Lieb sie oder laﬂ sie in ruh
TTITLE7=Crazy mama
TTITLE8=Stomping for beebo
TTITLE9=Cornbread pieces
TTITLE10=Pleasant joseph
TTITLE11=The letter
TTITLE12=You don¥t know me
TTITLE13=Too tired
TTITLE14=Beer drinkin¥ woman
TTITLE15=Midnight hour blues
EXTD=ID3G: 0
EXTT0=
EXTT1=
EXTT2=
EXTT3=
EXTT4=
EXTT5=
EXTT6=
EXTT7=
EXTT8=
EXTT9=
EXTT10=
EXTT11=
EXTT12=
EXTT13=
EXTT14=
EXTT15=
PLAYORDER=
